<svg width="20" height="20" viewBox="0 0 20 20" fill="none" xmlns="http://www.w3.org/2000/svg">
<path d="M13.082 4.40317C13.407 4.72817 13.407 5.25567 13.082 5.58192L8.6707 9.99192L13.082 14.4032C13.1625 14.4799 13.2268 14.5719 13.2713 14.6738C13.3157 14.7758 13.3393 14.8856 13.3406 14.9968C13.342 15.108 13.3211 15.2183 13.2792 15.3213C13.2372 15.4243 13.1751 15.5178 13.0965 15.5965C13.0179 15.6751 12.9243 15.7372 12.8213 15.7791C12.7183 15.8211 12.608 15.842 12.4968 15.8406C12.3856 15.8393 12.2758 15.8157 12.1739 15.7712C12.0719 15.7268 11.9799 15.6624 11.9032 15.5819L6.9032 10.5819C6.74695 10.4256 6.65918 10.2136 6.65918 9.99255C6.65918 9.77151 6.74695 9.55952 6.9032 9.40317L11.9032 4.40317C12.2282 4.07817 12.7557 4.07817 13.082 4.40317Z" fill="#131314"/>
</svg>
