<svg width="17" height="16" viewBox="0 0 17 16" fill="none" xmlns="http://www.w3.org/2000/svg">
<path d="M6.03433 12.4783C5.90933 12.3533 5.83911 12.1837 5.83911 12.0068C5.83911 11.83 5.90933 11.6604 6.03433 11.5353L9.56333 8.00735L6.03433 4.47735C5.96991 4.41599 5.91842 4.34238 5.88287 4.26082C5.84733 4.17927 5.82847 4.09143 5.82738 4.00248C5.8263 3.91353 5.84302 3.82525 5.87656 3.74286C5.9101 3.66046 5.95979 3.58561 6.02269 3.52271C6.0856 3.4598 6.16045 3.41012 6.24284 3.37657C6.32524 3.34303 6.41351 3.32631 6.50246 3.3274C6.59142 3.32848 6.67926 3.34735 6.76081 3.38289C6.84236 3.41843 6.91598 3.46993 6.97733 3.53435L10.9773 7.53435C11.2373 7.79435 11.2373 8.21735 10.9773 8.47735L6.97733 12.4773C6.85226 12.6023 6.68266 12.6726 6.50583 12.6726C6.329 12.6726 6.15941 12.6023 6.03433 12.4773V12.4783Z" fill="#131314"/>
</svg>
