<svg width="59" height="25" viewBox="0 0 59 25" fill="none" xmlns="http://www.w3.org/2000/svg">
<path d="M51.9857 19.5336C51.1017 19.5336 50.2611 19.3949 49.4637 19.1176C48.6837 18.8576 47.9991 18.4589 47.4097 17.9216C46.8204 17.3669 46.3524 16.6736 46.0057 15.8416C45.6764 15.0096 45.5117 14.0216 45.5117 12.8776C45.5117 11.8376 45.6764 10.9102 46.0057 10.0956C46.3351 9.2809 46.7857 8.59623 47.3577 8.04156C47.9471 7.4869 48.6317 7.0709 49.4117 6.79356C50.2091 6.4989 51.0671 6.35156 51.9857 6.35156C52.8871 6.35156 53.7277 6.4989 54.5077 6.79356C55.3051 7.0709 55.9984 7.4869 56.5877 8.04156C57.1597 8.59623 57.6104 9.2809 57.9397 10.0956C58.2864 10.9102 58.4597 11.8376 58.4597 12.8776C58.4597 14.0216 58.2864 15.0096 57.9397 15.8416C57.5931 16.6736 57.1251 17.3669 56.5357 17.9216C55.9464 18.4589 55.2531 18.8576 54.4557 19.1176C53.6757 19.3949 52.8524 19.5336 51.9857 19.5336ZM51.9857 7.49556C50.6857 7.49556 49.6717 7.94623 48.9437 8.84756C48.2331 9.7489 47.8777 11.0836 47.8777 12.8516C47.8777 13.6489 47.9731 14.3856 48.1637 15.0616C48.3544 15.7376 48.6317 16.3269 48.9957 16.8296C49.3597 17.3149 49.7931 17.6962 50.2957 17.9736C50.7984 18.2509 51.3617 18.3896 51.9857 18.3896C52.5924 18.3896 53.1471 18.2509 53.6497 17.9736C54.1524 17.6962 54.5857 17.3149 54.9497 16.8296C55.3137 16.3269 55.5911 15.7376 55.7817 15.0616C55.9897 14.3856 56.0937 13.6489 56.0937 12.8516C56.0937 11.0836 55.7297 9.7489 55.0017 8.84756C54.2737 7.94623 53.2684 7.49556 51.9857 7.49556Z" fill="#131314"/>
<path d="M39.4022 10.4322C39.4022 9.46155 39.1855 8.69022 38.7522 8.11822C38.3188 7.52888 37.6168 7.23422 36.6462 7.23422C35.7795 7.23422 35.0948 7.52888 34.5922 8.11822C34.1068 8.69022 33.8642 9.46155 33.8642 10.4322C33.8642 11.3682 34.0808 12.1222 34.5142 12.6942C34.9475 13.2489 35.6582 13.5262 36.6462 13.5262C37.6168 13.5262 38.3188 13.2489 38.7522 12.6942C39.1855 12.1222 39.4022 11.3682 39.4022 10.4322ZM31.5762 16.0742C31.5762 15.7796 31.6542 15.5282 31.8102 15.3202C31.9662 15.0949 32.1655 14.9042 32.4082 14.7482C32.6335 14.6096 32.8675 14.4969 33.1102 14.4102C33.3702 14.3236 33.5955 14.2542 33.7862 14.2022C33.9595 14.1849 34.0722 14.1676 34.1242 14.1502C34.1762 14.1329 34.1848 14.1069 34.1502 14.0722C34.0982 14.0549 34.0288 14.0376 33.9422 14.0202C33.8728 14.0029 33.8035 13.9769 33.7342 13.9422C33.5262 13.8382 33.2922 13.6996 33.0322 13.5262C32.7895 13.3356 32.5642 13.1102 32.3562 12.8502C32.1308 12.5902 31.9488 12.2782 31.8102 11.9142C31.6715 11.5502 31.6022 11.1256 31.6022 10.6402C31.6022 9.30555 32.0702 8.25689 33.0062 7.49422C33.9422 6.71422 35.1382 6.32422 36.5942 6.32422C37.1662 6.34155 37.6515 6.40222 38.0502 6.50622C38.4488 6.61022 38.8562 6.76622 39.2722 6.97422C39.4628 7.07822 39.6708 7.16489 39.8962 7.23422C40.1388 7.28622 40.3815 7.30355 40.6242 7.28622H42.7822C42.9035 7.28622 42.9988 7.32955 43.0682 7.41622C43.1548 7.50289 43.1982 7.65889 43.1982 7.88422C43.1982 8.14422 43.1462 8.31755 43.0422 8.40422C42.9555 8.49089 42.8602 8.53422 42.7562 8.53422H41.5602C41.3002 8.53422 41.1528 8.56889 41.1182 8.63822C41.1008 8.69022 41.1268 8.75955 41.1962 8.84622C41.2828 9.05422 41.3608 9.32289 41.4302 9.65222C41.4995 9.96422 41.5342 10.2589 41.5342 10.5362C41.5342 11.0389 41.4475 11.5242 41.2742 11.9922C41.1182 12.4429 40.8582 12.8502 40.4942 13.2142C40.1302 13.5782 39.6362 13.8642 39.0122 14.0722C38.4055 14.2802 37.6515 14.3842 36.7502 14.3842C35.9875 14.3842 35.3028 14.4796 34.6962 14.6702C34.1068 14.8436 33.8122 15.0602 33.8122 15.3202C33.8122 15.4242 33.8208 15.5282 33.8382 15.6322C33.8728 15.7189 33.9508 15.8056 34.0722 15.8922C34.2108 15.9616 34.4188 16.0222 34.6962 16.0742C34.9908 16.1089 35.3982 16.1262 35.9182 16.1262H38.7782C40.2688 16.1262 41.3348 16.4122 41.9762 16.9842C42.6175 17.5562 42.9382 18.3536 42.9382 19.3762C42.9382 20.7109 42.2795 21.8202 40.9622 22.7042C39.6448 23.5882 37.6168 24.0302 34.8782 24.0302C33.4568 24.0302 32.4775 23.7876 31.9402 23.3022C31.4202 22.8169 31.1602 22.1062 31.1602 21.1702C31.1602 20.4249 31.4288 19.7836 31.9662 19.2462C32.5208 18.7089 33.1188 18.2322 33.7602 17.8162C33.0322 17.6776 32.4775 17.4522 32.0962 17.1402C31.7322 16.8109 31.5588 16.4556 31.5762 16.0742ZM35.5022 17.8942C34.9128 17.8942 34.3928 18.1456 33.9422 18.6482C33.4915 19.1509 33.2662 19.7229 33.2662 20.3642C33.2662 21.1962 33.5522 21.8202 34.1242 22.2362C34.6962 22.6696 35.4588 22.8862 36.4122 22.8862C38.1108 22.8862 39.3068 22.6349 40.0002 22.1322C40.6935 21.6469 41.0402 20.9449 41.0402 20.0262C41.0402 19.3502 40.8408 18.8216 40.4422 18.4402C40.0435 18.0762 39.2808 17.8942 38.1542 17.8942H35.5022Z" fill="#131314"/>
<path d="M21.8217 19.5336C20.9377 19.5336 20.097 19.3949 19.2997 19.1176C18.5197 18.8576 17.835 18.4589 17.2457 17.9216C16.6563 17.3669 16.1883 16.6736 15.8417 15.8416C15.5123 15.0096 15.3477 14.0216 15.3477 12.8776C15.3477 11.8376 15.5123 10.9102 15.8417 10.0956C16.171 9.2809 16.6217 8.59623 17.1937 8.04156C17.783 7.4869 18.4677 7.0709 19.2477 6.79356C20.045 6.4989 20.903 6.35156 21.8217 6.35156C22.723 6.35156 23.5637 6.4989 24.3437 6.79356C25.141 7.0709 25.8343 7.4869 26.4237 8.04156C26.9957 8.59623 27.4463 9.2809 27.7757 10.0956C28.1223 10.9102 28.2957 11.8376 28.2957 12.8776C28.2957 14.0216 28.1223 15.0096 27.7757 15.8416C27.429 16.6736 26.961 17.3669 26.3717 17.9216C25.7823 18.4589 25.089 18.8576 24.2917 19.1176C23.5117 19.3949 22.6883 19.5336 21.8217 19.5336ZM21.8217 7.49556C20.5217 7.49556 19.5077 7.94623 18.7797 8.84756C18.069 9.7489 17.7137 11.0836 17.7137 12.8516C17.7137 13.6489 17.809 14.3856 17.9997 15.0616C18.1903 15.7376 18.4677 16.3269 18.8317 16.8296C19.1957 17.3149 19.629 17.6962 20.1317 17.9736C20.6343 18.2509 21.1977 18.3896 21.8217 18.3896C22.4283 18.3896 22.983 18.2509 23.4857 17.9736C23.9883 17.6962 24.4217 17.3149 24.7857 16.8296C25.1497 16.3269 25.427 15.7376 25.6177 15.0616C25.8257 14.3856 25.9297 13.6489 25.9297 12.8516C25.9297 11.0836 25.5657 9.7489 24.8377 8.84756C24.1097 7.94623 23.1043 7.49556 21.8217 7.49556Z" fill="#131314"/>
<path d="M5.66938 16.7523C5.66938 17.151 5.70404 17.4543 5.77338 17.6623C5.86004 17.853 6.03338 17.9743 6.29338 18.0263C6.48404 18.0783 6.70071 18.1043 6.94338 18.1043C7.18604 18.1216 7.41138 18.1303 7.61938 18.1303H10.1934C10.7134 18.1303 11.1207 18.0523 11.4154 17.8963C11.71 17.7403 11.9354 17.4803 12.0914 17.1163C12.282 16.7176 12.4467 16.3103 12.5854 15.8943C12.7414 15.461 12.8887 15.0363 13.0274 14.6203C13.062 14.4643 13.1054 14.369 13.1574 14.3343C13.2094 14.2996 13.296 14.2996 13.4174 14.3343C13.556 14.369 13.6427 14.4123 13.6774 14.4643C13.712 14.5163 13.7207 14.6116 13.7034 14.7503C13.6167 15.4956 13.5127 16.2496 13.3914 17.0123C13.2874 17.775 13.1747 18.5203 13.0534 19.2483C13.036 19.3696 12.9754 19.439 12.8714 19.4563C12.7847 19.491 12.7067 19.5083 12.6374 19.5083C12.5507 19.5083 12.2214 19.5083 11.6494 19.5083C11.0947 19.5083 10.4794 19.4996 9.80338 19.4823C9.14471 19.465 8.52938 19.4476 7.95738 19.4303C7.40271 19.4303 7.08204 19.4303 6.99538 19.4303C6.89138 19.4303 6.56204 19.4303 6.00738 19.4303C5.47004 19.4476 4.88071 19.465 4.23937 19.4823C3.58071 19.4996 2.96538 19.5083 2.39338 19.5083C1.82138 19.5083 1.45738 19.5083 1.30138 19.5083C1.16271 19.5083 1.05004 19.491 0.963375 19.4563C0.894042 19.4216 0.859375 19.3003 0.859375 19.0923C0.859375 18.9016 0.885375 18.7803 0.937375 18.7283C0.989375 18.6763 1.09338 18.6416 1.24938 18.6243C1.54404 18.607 1.83004 18.5723 2.10737 18.5203C2.38471 18.4856 2.64471 18.425 2.88738 18.3383C3.11271 18.269 3.27738 18.139 3.38138 17.9483C3.48538 17.7403 3.53738 17.4543 3.53738 17.0903V2.66031C3.53738 2.33098 3.48538 2.06231 3.38138 1.85431C3.27738 1.64631 3.11271 1.49898 2.88738 1.41231C2.64471 1.34298 2.40204 1.29098 2.15937 1.25631C1.93404 1.20431 1.70871 1.16965 1.48338 1.15231C1.32738 1.15231 1.22338 1.13498 1.17138 1.10031C1.11938 1.04831 1.09338 0.918312 1.09338 0.710312C1.09338 0.519645 1.12804 0.406978 1.19738 0.372312C1.28404 0.337646 1.39671 0.320312 1.53538 0.320312C1.62204 0.320312 1.81271 0.328979 2.10737 0.346313C2.41938 0.346313 2.74004 0.346313 3.06938 0.346313C3.41604 0.363646 3.73671 0.372312 4.03138 0.372312C4.32604 0.372312 4.52538 0.372312 4.62938 0.372312C4.73338 0.372312 4.93271 0.372312 5.22738 0.372312C5.53938 0.372312 5.86004 0.363646 6.18938 0.346313C6.51871 0.346313 6.83071 0.346313 7.12538 0.346313C7.42004 0.328979 7.61071 0.320312 7.69738 0.320312C7.81871 0.320312 7.91404 0.337646 7.98338 0.372312C8.07004 0.406978 8.11338 0.519645 8.11338 0.710312C8.11338 0.918312 8.08738 1.04831 8.03538 1.10031C7.98338 1.13498 7.88804 1.15231 7.74938 1.15231C7.48938 1.16965 7.24671 1.20431 7.02138 1.25631C6.79604 1.29098 6.57071 1.34298 6.34538 1.41231C6.08538 1.49898 5.90338 1.64631 5.79938 1.85431C5.71271 2.06231 5.66938 2.33098 5.66938 2.66031V16.7523Z" fill="#131314"/>
</svg>
