<svg width="108" height="23" viewBox="0 0 108 23" fill="none" xmlns="http://www.w3.org/2000/svg">
<path d="M104.384 8.02481C104.432 7.84881 104.424 7.72081 104.36 7.64081C104.296 7.54481 104.168 7.47281 103.976 7.42481C103.896 7.42481 103.816 7.42481 103.736 7.42481C103.672 7.40881 103.608 7.39281 103.544 7.37681C103.48 7.37681 103.416 7.37681 103.352 7.37681C103.288 7.36081 103.224 7.34481 103.16 7.32881C103.048 7.32881 102.968 7.31281 102.92 7.28081C102.872 7.23281 102.848 7.12881 102.848 6.96881C102.848 6.82481 102.88 6.73681 102.944 6.70481C103.008 6.65681 103.096 6.63281 103.208 6.63281C103.272 6.63281 103.392 6.64081 103.568 6.65681C103.76 6.65681 103.96 6.65681 104.168 6.65681C104.376 6.67281 104.576 6.68081 104.768 6.68081C104.96 6.68081 105.104 6.68081 105.2 6.68081C105.28 6.68081 105.408 6.68081 105.584 6.68081C105.76 6.68081 105.944 6.67281 106.136 6.65681C106.328 6.65681 106.512 6.65681 106.688 6.65681C106.864 6.64081 107 6.63281 107.096 6.63281C107.176 6.63281 107.248 6.65681 107.312 6.70481C107.376 6.73681 107.408 6.82481 107.408 6.96881C107.408 7.12881 107.384 7.23281 107.336 7.28081C107.288 7.32881 107.216 7.35281 107.12 7.35281C107.072 7.36881 107.016 7.38481 106.952 7.40081C106.904 7.40081 106.848 7.40081 106.784 7.40081C106.72 7.41681 106.656 7.43281 106.592 7.44881C106.544 7.46481 106.496 7.48081 106.448 7.49681C106.256 7.57681 106.088 7.68881 105.944 7.83281C105.816 7.97681 105.712 8.13681 105.632 8.31281C105.376 8.87281 105.112 9.47281 104.84 10.1128C104.568 10.7528 104.296 11.4008 104.024 12.0568C103.752 12.7288 103.488 13.4008 103.232 14.0728C102.976 14.7288 102.728 15.3528 102.488 15.9448C102.104 16.8248 101.72 17.7208 101.336 18.6328C100.952 19.5608 100.6 20.4248 100.28 21.2248C100.072 21.7528 99.808 22.1208 99.488 22.3288C99.168 22.5368 98.888 22.6408 98.648 22.6408C98.264 22.6408 97.96 22.5528 97.736 22.3768C97.528 22.2008 97.424 21.9768 97.424 21.7048C97.424 21.4008 97.504 21.1448 97.664 20.9368C97.824 20.7288 98.008 20.6248 98.216 20.6248H98.24C98.528 20.6248 98.776 20.5848 98.984 20.5048C99.208 20.4248 99.416 20.1688 99.608 19.7368L100.376 17.4088C100.424 17.2648 100.432 17.1208 100.4 16.9768C100.384 16.8328 100.336 16.6648 100.256 16.4728L97.376 8.93681C97.232 8.60081 97.088 8.30481 96.944 8.04881C96.8 7.77681 96.648 7.60881 96.488 7.54481C96.296 7.49681 96.112 7.45681 95.936 7.42481C95.776 7.39281 95.6 7.36881 95.408 7.35281C95.328 7.35281 95.264 7.32881 95.216 7.28081C95.184 7.23281 95.168 7.12881 95.168 6.96881C95.168 6.82481 95.192 6.73681 95.24 6.70481C95.304 6.65681 95.368 6.63281 95.432 6.63281C95.512 6.63281 95.68 6.64081 95.936 6.65681C96.192 6.65681 96.464 6.65681 96.752 6.65681C97.04 6.67281 97.304 6.68081 97.544 6.68081C97.8 6.68081 97.976 6.68081 98.072 6.68081C98.152 6.68081 98.312 6.68081 98.552 6.68081C98.792 6.68081 99.048 6.67281 99.32 6.65681C99.576 6.65681 99.816 6.65681 100.04 6.65681C100.28 6.64081 100.44 6.63281 100.52 6.63281C100.616 6.63281 100.696 6.65681 100.76 6.70481C100.84 6.73681 100.88 6.82481 100.88 6.96881C100.88 7.12881 100.848 7.23281 100.784 7.28081C100.736 7.31281 100.664 7.32881 100.568 7.32881C100.472 7.34481 100.384 7.36081 100.304 7.37681C100.24 7.37681 100.176 7.38481 100.112 7.40081C100.048 7.41681 99.984 7.43281 99.92 7.44881C99.856 7.44881 99.792 7.44881 99.728 7.44881C99.488 7.51281 99.328 7.61681 99.248 7.76081C99.168 7.90481 99.176 8.07281 99.272 8.26481L101.816 14.6968C102.024 14.1688 102.24 13.6328 102.464 13.0888C102.688 12.5288 102.912 11.9688 103.136 11.4088C103.36 10.8328 103.576 10.2648 103.784 9.70481C104.008 9.14481 104.208 8.58481 104.384 8.02481Z" fill="#131314"/>
<path d="M85.0532 7.95288C85.0532 8.08087 85.0852 8.15287 85.1492 8.16887C85.2132 8.16887 85.2772 8.13687 85.3412 8.07288C85.7252 7.64087 86.2132 7.24088 86.8052 6.87288C87.3972 6.48888 88.0772 6.29688 88.8452 6.29688C90.0292 6.29688 90.9732 6.61688 91.6772 7.25688C92.3812 7.89687 92.7332 8.81687 92.7332 10.0169V16.3049C92.7332 16.6089 92.7652 16.8489 92.8292 17.0249C92.8932 17.2009 93.0132 17.3129 93.1892 17.3609C93.3332 17.4249 93.4852 17.4729 93.6452 17.5049C93.8212 17.5369 93.9972 17.5529 94.1732 17.5529C94.3172 17.5689 94.4132 17.6009 94.4612 17.6489C94.5252 17.7129 94.5572 17.8249 94.5572 17.9849C94.5572 18.1449 94.5092 18.2409 94.4132 18.2729C94.3332 18.3209 94.2372 18.3449 94.1252 18.3449C94.0772 18.3449 93.9412 18.3449 93.7172 18.3449C93.5092 18.3449 93.2772 18.3369 93.0212 18.3209C92.7812 18.3209 92.5412 18.3129 92.3012 18.2969C92.0772 18.2969 91.9252 18.2969 91.8452 18.2969C91.7492 18.2969 91.5732 18.2969 91.3172 18.2969C91.0772 18.3129 90.8292 18.3209 90.5732 18.3209C90.3012 18.3369 90.0532 18.3449 89.8292 18.3449C89.6212 18.3449 89.4932 18.3449 89.4452 18.3449C89.3172 18.3449 89.2132 18.3209 89.1332 18.2729C89.0692 18.2409 89.0372 18.1449 89.0372 17.9849C89.0372 17.8249 89.0612 17.7129 89.1092 17.6489C89.1572 17.6009 89.2532 17.5689 89.3972 17.5529C89.5892 17.5529 89.7572 17.5369 89.9012 17.5049C90.0612 17.4889 90.2292 17.4489 90.4052 17.3849C90.5972 17.3369 90.7332 17.2249 90.8132 17.0489C90.8932 16.8729 90.9332 16.6329 90.9332 16.3289V10.6409C90.9332 9.60087 90.6932 8.84887 90.2132 8.38487C89.7332 7.92087 89.0132 7.68888 88.0532 7.68888C87.3812 7.68888 86.7892 7.88088 86.2772 8.26488C85.7652 8.63288 85.3652 9.10488 85.0772 9.68088C85.0292 9.77688 84.9972 9.87287 84.9812 9.96887C84.9812 10.0649 84.9812 10.1769 84.9812 10.3049V16.3289C84.9812 16.6329 85.0212 16.8649 85.1012 17.0249C85.1812 17.2009 85.3172 17.3129 85.5092 17.3609C85.6692 17.4249 85.8212 17.4729 85.9652 17.5049C86.1252 17.5369 86.3092 17.5529 86.5172 17.5529C86.6452 17.5689 86.7332 17.6009 86.7812 17.6489C86.8452 17.7129 86.8772 17.8249 86.8772 17.9849C86.8772 18.1449 86.8372 18.2409 86.7572 18.2729C86.6772 18.3209 86.5812 18.3449 86.4692 18.3449C86.4052 18.3449 86.2612 18.3449 86.0372 18.3449C85.8132 18.3449 85.5732 18.3369 85.3172 18.3209C85.0452 18.3209 84.7892 18.3129 84.5492 18.2969C84.3092 18.2969 84.1412 18.2969 84.0452 18.2969C83.9492 18.2969 83.7812 18.2969 83.5412 18.2969C83.3172 18.3129 83.0772 18.3209 82.8212 18.3209C82.5652 18.3369 82.3252 18.3449 82.1012 18.3449C81.8932 18.3449 81.7652 18.3449 81.7172 18.3449C81.5892 18.3449 81.4852 18.3209 81.4052 18.2729C81.3252 18.2409 81.2852 18.1449 81.2852 17.9849C81.2852 17.8249 81.3092 17.7129 81.3572 17.6489C81.4212 17.6009 81.5252 17.5689 81.6692 17.5529C81.8292 17.5529 82.0052 17.5369 82.1972 17.5049C82.3892 17.4729 82.5652 17.4249 82.7252 17.3609C82.8852 17.3129 83.0052 17.2009 83.0852 17.0249C83.1652 16.8489 83.2052 16.6089 83.2052 16.3049V9.20088C83.2052 8.89688 83.0772 8.69688 82.8212 8.60087C82.5812 8.48887 82.3092 8.40088 82.0052 8.33687C81.9412 8.33687 81.8852 8.32887 81.8372 8.31287C81.7892 8.29688 81.7412 8.28088 81.6932 8.26488C81.6612 8.23288 81.6372 8.20087 81.6212 8.16887C81.6052 8.13688 81.5972 8.08087 81.5972 8.00087C81.5972 7.93687 81.5972 7.88087 81.5972 7.83287C81.6132 7.78487 81.6372 7.74488 81.6692 7.71288C81.7012 7.69688 81.7332 7.68088 81.7652 7.66488C81.8132 7.64888 81.8772 7.62487 81.9572 7.59287C82.4212 7.49687 82.8612 7.37688 83.2772 7.23288C83.7092 7.07288 84.1332 6.87288 84.5492 6.63288C84.6932 6.53688 84.8292 6.51288 84.9572 6.56087C85.0852 6.60888 85.1412 6.72888 85.1252 6.92088C85.0932 7.11288 85.0692 7.29688 85.0532 7.47288C85.0532 7.64888 85.0532 7.80888 85.0532 7.95288Z" fill="#131314"/>
<path d="M72.6799 17.1454C73.2719 17.1454 73.8399 16.9774 74.3839 16.6414C74.9279 16.2894 75.3439 15.9854 75.6319 15.7294C75.7599 15.6334 75.8399 15.5374 75.8719 15.4414C75.9199 15.3454 75.9439 15.2014 75.9439 15.0094V12.6814C75.9439 12.4574 75.8879 12.3134 75.7759 12.2494C75.6639 12.1694 75.5039 12.1534 75.2959 12.2014C75.0079 12.3134 74.6879 12.4414 74.3359 12.5854C73.9839 12.7294 73.6319 12.8814 73.2799 13.0414C72.9279 13.2174 72.5919 13.3934 72.2719 13.5694C71.9679 13.7454 71.7119 13.9134 71.5039 14.0734C71.3119 14.2174 71.1679 14.4254 71.0719 14.6974C70.9759 14.9694 70.9279 15.2574 70.9279 15.5614C70.9279 16.0894 71.0719 16.4894 71.3599 16.7614C71.6479 17.0174 72.0879 17.1454 72.6799 17.1454ZM77.8879 8.76944V15.3454C77.8879 15.7934 77.9439 16.1534 78.0559 16.4254C78.1679 16.6814 78.4559 16.8094 78.9199 16.8094C79.1119 16.8094 79.2799 16.7534 79.4239 16.6414C79.5679 16.5134 79.6639 16.3934 79.7119 16.2814C79.8079 16.1054 79.9119 16.0574 80.0239 16.1374C80.1519 16.2014 80.1919 16.3614 80.1439 16.6174C80.0479 17.0494 79.7999 17.4734 79.3999 17.8894C79.0159 18.3214 78.5199 18.5374 77.9119 18.5374C77.3359 18.5374 76.9119 18.3534 76.6399 17.9854C76.3679 17.6334 76.1999 17.2574 76.1359 16.8574C76.0879 16.7134 76.0399 16.6254 75.9919 16.5934C75.9439 16.5454 75.8559 16.5854 75.7279 16.7134C75.4559 16.9054 75.1519 17.1134 74.8159 17.3374C74.4959 17.5614 74.1519 17.7774 73.7839 17.9854C73.3999 18.1774 72.9919 18.3374 72.5599 18.4654C72.1439 18.5934 71.7119 18.6574 71.2639 18.6574C70.4319 18.6574 69.7919 18.4334 69.3439 17.9854C68.8959 17.5534 68.6719 16.9694 68.6719 16.2334C68.6719 15.6894 68.7919 15.2014 69.0319 14.7694C69.2879 14.3214 69.6239 13.9534 70.0399 13.6654C70.3279 13.4734 70.6879 13.2734 71.1199 13.0654C71.5519 12.8574 72.0239 12.6494 72.5359 12.4414C73.0479 12.2494 73.5679 12.0574 74.0959 11.8654C74.6399 11.6574 75.1519 11.4654 75.6319 11.2894C75.7599 11.2414 75.8399 11.1534 75.8719 11.0254C75.9199 10.8974 75.9439 10.7134 75.9439 10.4734V9.10544C75.9439 8.46544 75.7439 8.00944 75.3439 7.73744C74.9599 7.46544 74.4319 7.32944 73.7599 7.32944C72.8159 7.32944 72.1359 7.57744 71.7199 8.07344C71.3039 8.55344 71.0959 9.05744 71.0959 9.58544C71.1439 9.92144 71.0639 10.1614 70.8559 10.3054C70.6479 10.4494 70.3679 10.5694 70.0159 10.6654C69.6319 10.7774 69.3439 10.7934 69.1519 10.7134C68.9599 10.6334 68.8639 10.4814 68.8639 10.2574C68.8479 9.92144 68.8959 9.56944 69.0079 9.20144C69.1199 8.81744 69.3039 8.49744 69.5599 8.24144C70.1679 7.63344 70.9759 7.15344 71.9839 6.80144C73.0079 6.44944 74.0399 6.27344 75.0799 6.27344C76.0239 6.27344 76.7279 6.49744 77.1919 6.94544C77.6559 7.37744 77.8879 7.98544 77.8879 8.76944Z" fill="#131314"/>
<path d="M65.6531 12.1998C65.6531 13.0958 65.5011 13.9278 65.1971 14.6958C64.9091 15.4638 64.5091 16.1278 63.9971 16.6878C63.4691 17.2638 62.8371 17.7038 62.1011 18.0078C61.3651 18.3278 60.5571 18.4878 59.6771 18.4878C59.3411 18.4878 58.9091 18.4638 58.3811 18.4158C57.8691 18.3678 57.4371 18.2718 57.0851 18.1278C56.8451 18.0318 56.6851 18.0158 56.6051 18.0798C56.5251 18.1598 56.4851 18.2878 56.4851 18.4638V20.6718C56.4851 20.9758 56.5171 21.2078 56.5811 21.3678C56.6611 21.5278 56.7891 21.6318 56.9651 21.6798C57.1891 21.7438 57.4131 21.7918 57.6371 21.8238C57.8771 21.8558 58.1011 21.8878 58.3091 21.9198C58.4371 21.9198 58.5251 21.9358 58.5731 21.9678C58.6371 22.0158 58.6691 22.1198 58.6691 22.2798C58.6691 22.4398 58.6291 22.5358 58.5491 22.5678C58.4691 22.6158 58.3731 22.6398 58.2611 22.6398C58.1971 22.6398 58.0371 22.6318 57.7811 22.6158C57.5411 22.6158 57.2691 22.6158 56.9651 22.6158C56.6611 22.5998 56.3731 22.5918 56.1011 22.5918C55.8451 22.5918 55.6691 22.5918 55.5731 22.5918C55.4771 22.5918 55.3091 22.5918 55.0691 22.5918C54.8451 22.5918 54.5971 22.5998 54.3251 22.6158C54.0691 22.6158 53.8291 22.6158 53.6051 22.6158C53.3971 22.6318 53.2691 22.6398 53.2211 22.6398C53.0931 22.6398 52.9891 22.6158 52.9091 22.5678C52.8291 22.5358 52.7891 22.4398 52.7891 22.2798C52.7891 22.1198 52.8131 22.0158 52.8611 21.9678C52.9251 21.9198 53.0291 21.8958 53.1731 21.8958C53.3331 21.8798 53.5091 21.8558 53.7011 21.8238C53.8931 21.7918 54.0691 21.7518 54.2291 21.7038C54.3731 21.6558 54.4771 21.5438 54.5411 21.3678C54.6211 21.1918 54.6611 20.9518 54.6611 20.6478V9.19975C54.6611 8.89575 54.5411 8.69575 54.3011 8.59975C54.0771 8.48775 53.8131 8.39975 53.5091 8.33575C53.4451 8.33575 53.3891 8.32775 53.3411 8.31175C53.2931 8.29575 53.2451 8.27975 53.1971 8.26375C53.1651 8.23175 53.1411 8.19975 53.1251 8.16775C53.1091 8.13575 53.1011 8.07975 53.1011 7.99975C53.1011 7.85575 53.1251 7.76775 53.1731 7.73575C53.2211 7.68775 53.3171 7.63975 53.4611 7.59175C53.9251 7.49575 54.3571 7.37575 54.7571 7.23175C55.1731 7.07175 55.5891 6.87175 56.0051 6.63175C56.1491 6.53575 56.2931 6.51175 56.4371 6.55975C56.5811 6.60775 56.6291 6.72775 56.5811 6.91975C56.5331 7.11175 56.5011 7.31175 56.4851 7.51975C56.4851 7.71175 56.4851 7.87975 56.4851 8.02375C56.4851 8.16775 56.5251 8.25575 56.6051 8.28775C56.7011 8.30375 56.8211 8.23975 56.9651 8.09575C57.4451 7.59975 57.9971 7.18375 58.6211 6.84775C59.2611 6.51175 59.9811 6.34375 60.7811 6.34375C61.4531 6.34375 62.0851 6.46375 62.6771 6.70375C63.2691 6.92775 63.7811 7.27975 64.2131 7.75975C64.6611 8.23975 65.0131 8.84775 65.2691 9.58375C65.5251 10.3198 65.6531 11.1918 65.6531 12.1998ZM59.2691 17.5038C59.9571 17.5038 60.5731 17.3758 61.1171 17.1198C61.6611 16.8798 62.1171 16.5358 62.4851 16.0878C62.8691 15.6398 63.1571 15.1198 63.3491 14.5278C63.5571 13.9358 63.6611 13.2878 63.6611 12.5838C63.6611 11.1438 63.2931 10.0318 62.5571 9.24775C61.8211 8.44775 60.8371 8.04775 59.6051 8.04775C59.0291 8.04775 58.5011 8.16775 58.0211 8.40775C57.5411 8.63175 57.1411 8.88775 56.8211 9.17575C56.6771 9.28775 56.5811 9.39975 56.5331 9.51175C56.5011 9.60775 56.4851 9.72775 56.4851 9.87175V15.1278C56.4851 15.5438 56.5571 15.9038 56.7011 16.2078C56.8611 16.5118 57.0771 16.7598 57.3491 16.9518C57.6051 17.1598 57.9011 17.3038 58.2371 17.3838C58.5891 17.4638 58.9331 17.5038 59.2691 17.5038Z" fill="#131314"/>
<path d="M42.2192 9.56087C42.1872 9.65687 42.1712 9.74487 42.1712 9.82487C42.1712 9.88888 42.1712 9.95287 42.1712 10.0169L42.2192 16.3049C42.2192 16.6089 42.2512 16.8489 42.3152 17.0249C42.3952 17.2009 42.5072 17.3129 42.6512 17.3609C42.7952 17.4249 42.9472 17.4729 43.1072 17.5049C43.2832 17.5369 43.4592 17.5529 43.6352 17.5529C43.7632 17.5689 43.8592 17.6009 43.9232 17.6489C43.9872 17.7129 44.0192 17.8249 44.0192 17.9849C44.0192 18.1449 43.9712 18.2409 43.8752 18.2729C43.7952 18.3209 43.6992 18.3449 43.5872 18.3449C43.5392 18.3449 43.4032 18.3449 43.1792 18.3449C42.9712 18.3449 42.7392 18.3369 42.4832 18.3209C42.2432 18.3209 42.0032 18.3129 41.7632 18.2969C41.5392 18.2969 41.3872 18.2969 41.3072 18.2969C41.2112 18.2969 41.0432 18.2969 40.8032 18.2969C40.5792 18.3129 40.3392 18.3209 40.0832 18.3209C39.8272 18.3369 39.5952 18.3449 39.3872 18.3449C39.1792 18.3449 39.0512 18.3449 39.0032 18.3449C38.8752 18.3449 38.7712 18.3209 38.6912 18.2729C38.6272 18.2409 38.5952 18.1449 38.5952 17.9849C38.5952 17.8249 38.6192 17.7129 38.6672 17.6489C38.7152 17.6009 38.8112 17.5689 38.9552 17.5529C39.1472 17.5529 39.3072 17.5369 39.4352 17.5049C39.5632 17.4729 39.7232 17.4249 39.9152 17.3609C40.0752 17.3129 40.1952 17.2009 40.2752 17.0249C40.3552 16.8489 40.3952 16.6089 40.3952 16.3049V10.6409C40.3952 9.60087 40.1792 8.84887 39.7472 8.38487C39.3312 7.92087 38.6512 7.68888 37.7072 7.68888C37.0352 7.68888 36.4592 7.88088 35.9792 8.26488C35.4992 8.63288 35.1152 9.10488 34.8272 9.68088C34.7792 9.77688 34.7472 9.87287 34.7312 9.96887C34.7312 10.0649 34.7312 10.1769 34.7312 10.3049V16.3049C34.7312 16.6089 34.7712 16.8489 34.8512 17.0249C34.9312 17.2009 35.0672 17.3129 35.2592 17.3609C35.4192 17.4249 35.5712 17.4729 35.7152 17.5049C35.8752 17.5369 36.0592 17.5529 36.2672 17.5529C36.3952 17.5689 36.4832 17.6009 36.5312 17.6489C36.5952 17.7129 36.6272 17.8249 36.6272 17.9849C36.6272 18.1449 36.5872 18.2409 36.5072 18.2729C36.4272 18.3209 36.3312 18.3449 36.2192 18.3449C36.1552 18.3449 36.0112 18.3449 35.7872 18.3449C35.5632 18.3449 35.3232 18.3369 35.0672 18.3209C34.7952 18.3209 34.5392 18.3129 34.2992 18.2969C34.0592 18.2969 33.8912 18.2969 33.7952 18.2969C33.6992 18.2969 33.5312 18.2969 33.2912 18.2969C33.0672 18.3129 32.8272 18.3209 32.5712 18.3209C32.3152 18.3369 32.0752 18.3449 31.8512 18.3449C31.6432 18.3449 31.5152 18.3449 31.4672 18.3449C31.3392 18.3449 31.2352 18.3209 31.1552 18.2729C31.0752 18.2409 31.0352 18.1449 31.0352 17.9849C31.0352 17.8249 31.0592 17.7129 31.1072 17.6489C31.1712 17.6009 31.2752 17.5689 31.4192 17.5529C31.5792 17.5529 31.7552 17.5369 31.9472 17.5049C32.1392 17.4729 32.3152 17.4249 32.4752 17.3609C32.6352 17.3129 32.7552 17.2009 32.8352 17.0249C32.9152 16.8489 32.9552 16.6089 32.9552 16.3049V9.20088C32.9552 8.89688 32.8272 8.69688 32.5712 8.60087C32.3312 8.48887 32.0592 8.40088 31.7552 8.33687C31.6912 8.33687 31.6352 8.32887 31.5872 8.31287C31.5392 8.29688 31.4912 8.28088 31.4432 8.26488C31.4112 8.23288 31.3872 8.20087 31.3712 8.16887C31.3552 8.13688 31.3472 8.08087 31.3472 8.00087C31.3472 7.85687 31.3712 7.76888 31.4192 7.73688C31.4672 7.68888 31.5632 7.64087 31.7072 7.59287C32.1712 7.49687 32.6112 7.37688 33.0272 7.23288C33.4592 7.07288 33.8832 6.87288 34.2992 6.63288C34.4432 6.53688 34.5792 6.51288 34.7072 6.56087C34.8352 6.60888 34.8912 6.72888 34.8752 6.92088C34.8432 7.11288 34.8192 7.29688 34.8032 7.47288C34.8032 7.64888 34.8032 7.80888 34.8032 7.95288C34.8032 8.08087 34.8432 8.15287 34.9232 8.16887C35.0032 8.16887 35.0752 8.13687 35.1392 8.07288C35.4912 7.60887 35.9392 7.20087 36.4832 6.84888C37.0432 6.48088 37.7072 6.29688 38.4752 6.29688C39.2912 6.29688 39.9712 6.44888 40.5152 6.75288C41.0752 7.05688 41.5072 7.49687 41.8112 8.07288C41.8592 8.18488 41.9312 8.24088 42.0272 8.24088C42.1232 8.24088 42.2112 8.19288 42.2912 8.09688C42.6592 7.61688 43.1392 7.20087 43.7312 6.84888C44.3392 6.48088 45.0272 6.29688 45.7952 6.29688C46.9792 6.29688 47.8992 6.61688 48.5552 7.25688C49.2272 7.89687 49.5632 8.81687 49.5632 10.0169V16.3049C49.5632 16.6089 49.5952 16.8489 49.6592 17.0249C49.7232 17.2009 49.8432 17.3129 50.0192 17.3609C50.1632 17.4249 50.3072 17.4729 50.4512 17.5049C50.5952 17.5369 50.7552 17.5529 50.9312 17.5529C51.0592 17.5689 51.1552 17.6009 51.2192 17.6489C51.2832 17.7129 51.3152 17.8249 51.3152 17.9849C51.3152 18.1449 51.2672 18.2409 51.1712 18.2729C51.0912 18.3209 50.9952 18.3449 50.8832 18.3449C50.8352 18.3449 50.7072 18.3449 50.4992 18.3449C50.2912 18.3449 50.0672 18.3369 49.8272 18.3209C49.5872 18.3209 49.3552 18.3129 49.1312 18.2969C48.9072 18.2969 48.7552 18.2969 48.6752 18.2969C48.5792 18.2969 48.4112 18.2969 48.1712 18.2969C47.9472 18.3129 47.7072 18.3209 47.4512 18.3209C47.1952 18.3369 46.9632 18.3449 46.7552 18.3449C46.5472 18.3449 46.4192 18.3449 46.3712 18.3449C46.2432 18.3449 46.1392 18.3209 46.0592 18.2729C45.9952 18.2409 45.9632 18.1449 45.9632 17.9849C45.9632 17.8249 45.9872 17.7129 46.0352 17.6489C46.0832 17.6009 46.1792 17.5689 46.3232 17.5529C46.5152 17.5529 46.6672 17.5369 46.7792 17.5049C46.9072 17.4729 47.0672 17.4249 47.2592 17.3609C47.4352 17.3129 47.5632 17.2009 47.6432 17.0249C47.7232 16.8489 47.7632 16.6089 47.7632 16.3049V10.6409C47.7632 9.60087 47.5392 8.84887 47.0912 8.38487C46.6592 7.92087 45.9632 7.68888 45.0032 7.68888C44.3632 7.68888 43.8032 7.87288 43.3232 8.24088C42.8592 8.59288 42.4912 9.03287 42.2192 9.56087Z" fill="#131314"/>
<path d="M22.8901 18.4141C22.0741 18.4141 21.2981 18.2861 20.5621 18.0301C19.8421 17.7901 19.2101 17.4221 18.6661 16.9261C18.1221 16.4141 17.6901 15.7741 17.3701 15.0061C17.0661 14.2381 16.9141 13.3261 16.9141 12.2701C16.9141 11.3101 17.0661 10.4541 17.3701 9.70209C17.6741 8.95009 18.0901 8.31809 18.6181 7.80609C19.1621 7.29409 19.7941 6.91009 20.5141 6.65409C21.2501 6.38209 22.0421 6.24609 22.8901 6.24609C23.7221 6.24609 24.4981 6.38209 25.2181 6.65409C25.9541 6.91009 26.5941 7.29409 27.1381 7.80609C27.6661 8.31809 28.0821 8.95009 28.3861 9.70209C28.7061 10.4541 28.8661 11.3101 28.8661 12.2701C28.8661 13.3261 28.7061 14.2381 28.3861 15.0061C28.0661 15.7741 27.6341 16.4141 27.0901 16.9261C26.5461 17.4221 25.9061 17.7901 25.1701 18.0301C24.4501 18.2861 23.6901 18.4141 22.8901 18.4141ZM22.8901 7.30209C21.6901 7.30209 20.7541 7.71809 20.0821 8.55009C19.4261 9.38209 19.0981 10.6141 19.0981 12.2461C19.0981 12.9821 19.1861 13.6621 19.3621 14.2861C19.5381 14.9101 19.7941 15.4541 20.1301 15.9181C20.4661 16.3661 20.8661 16.7181 21.3301 16.9741C21.7941 17.2301 22.3141 17.3581 22.8901 17.3581C23.4501 17.3581 23.9621 17.2301 24.4261 16.9741C24.8901 16.7181 25.2901 16.3661 25.6261 15.9181C25.9621 15.4541 26.2181 14.9101 26.3941 14.2861C26.5861 13.6621 26.6821 12.9821 26.6821 12.2461C26.6821 10.6141 26.3461 9.38209 25.6741 8.55009C25.0021 7.71809 24.0741 7.30209 22.8901 7.30209Z" fill="#131314"/>
<path d="M13.5918 17.6226C12.8558 17.9106 12.1198 18.1266 11.3838 18.2706C10.6478 18.4146 9.75175 18.4866 8.69575 18.4866C7.59175 18.4866 6.53575 18.3026 5.52775 17.9346C4.51975 17.5666 3.63175 17.0146 2.86375 16.2786C2.09575 15.5426 1.47975 14.6386 1.01575 13.5666C0.56775 12.4946 0.34375 11.2546 0.34375 9.84659C0.34375 8.16659 0.59175 6.7426 1.08775 5.5746C1.59975 4.3906 2.25575 3.43059 3.05575 2.69459C3.85575 1.95859 4.75175 1.42259 5.74375 1.08659C6.73575 0.734594 7.71975 0.558594 8.69575 0.558594C9.86375 0.558594 10.8398 0.638594 11.6238 0.798595C12.4078 0.958595 13.1678 1.15859 13.9038 1.39859C13.9678 1.43059 14.0238 1.47059 14.0718 1.51859C14.1198 1.55059 14.1518 1.6066 14.1678 1.68659C14.2158 2.26259 14.2558 2.80659 14.2878 3.31859C14.3358 3.83059 14.3838 4.37459 14.4318 4.95059C14.4318 5.0786 14.4158 5.16659 14.3838 5.21459C14.3678 5.26259 14.2958 5.29459 14.1678 5.31059C14.0238 5.34259 13.9358 5.34259 13.9038 5.31059C13.8718 5.26259 13.8478 5.17459 13.8318 5.04659C13.7838 4.75859 13.6718 4.41459 13.4958 4.0146C13.3198 3.61459 13.1118 3.27859 12.8717 3.00659C12.4397 2.57459 11.8877 2.2386 11.2157 1.9986C10.5437 1.75859 9.75175 1.63859 8.83975 1.63859C8.11975 1.63859 7.39975 1.81459 6.67975 2.16659C5.95975 2.51859 5.31175 3.0226 4.73575 3.6786C4.15975 4.3506 3.68775 5.17459 3.31975 6.15059C2.96775 7.11059 2.79175 8.21459 2.79175 9.46259C2.79175 10.6626 2.92775 11.7506 3.19975 12.7266C3.47175 13.6866 3.87175 14.5106 4.39975 15.1986C4.91175 15.8866 5.54375 16.4226 6.29575 16.8066C7.04775 17.1746 7.89575 17.3586 8.83975 17.3586C9.76775 17.3586 10.5918 17.2466 11.3118 17.0226C12.0478 16.7986 12.5518 16.5186 12.8238 16.1826C13.0798 15.8626 13.2958 15.4946 13.4718 15.0786C13.6478 14.6626 13.7998 14.2626 13.9278 13.8786C13.9758 13.7506 14.0157 13.6706 14.0478 13.6386C14.0798 13.6066 14.1678 13.6066 14.3118 13.6386C14.4238 13.6866 14.4878 13.7346 14.5038 13.7826C14.5358 13.8306 14.5437 13.9186 14.5278 14.0466C14.4318 14.6226 14.3198 15.1986 14.1918 15.7746C14.0798 16.3346 13.9518 16.8786 13.8078 17.4066C13.7758 17.4706 13.7438 17.5186 13.7118 17.5506C13.6798 17.5826 13.6398 17.6066 13.5918 17.6226Z" fill="#131314"/>
</svg>
